<svg width="32" height="32" viewBox="0 0 32 32" fill="none" xmlns="http://www.w3.org/2000/svg">
<path d="M10.653 17.46H3.865C1.697 17.46 0 19.16 0 21.332V28.129C0 30.299 1.697 31.999 3.865 31.999H10.653C12.822 31.999 14.519 30.299 14.519 28.129V21.33C14.519 19.159 12.727 17.46 10.653 17.46ZM12.162 28.033C12.162 28.883 11.502 29.543 10.653 29.543H3.865C3.66613 29.5454 3.46878 29.508 3.2846 29.4329C3.10041 29.3579 2.93312 29.2467 2.79258 29.106C2.65204 28.9652 2.54109 28.7978 2.46628 28.6135C2.39147 28.4292 2.35432 28.2318 2.357 28.033V21.237C2.357 20.387 3.017 19.727 3.865 19.727H10.653C11.502 19.727 12.162 20.387 12.162 21.237V28.033Z" fill="white"/>
<path d="M28.095 11.988H19.987V3.87C19.892 1.7 18.196 0 16.027 0H3.865C1.697 0 0 1.7 0 3.87V10.478C0 12.649 1.697 14.348 3.865 14.348H17.535V28.035C17.535 30.206 19.233 31.905 21.401 31.905H28.001C30.169 31.905 31.866 30.206 31.866 28.035V15.858C31.866 13.782 30.169 12.083 28.095 11.988ZM3.865 11.988C3.66613 11.9904 3.46878 11.953 3.2846 11.8779C3.10041 11.8029 2.93312 11.6917 2.79258 11.551C2.65204 11.4103 2.54109 11.2428 2.46628 11.0585C2.39147 10.8743 2.35432 10.6769 2.357 10.478V3.87C2.357 3.02 3.017 2.36 3.865 2.36H16.027C16.876 2.36 17.536 3.02 17.536 3.87V11.988H3.865ZM29.603 28.035C29.603 28.885 28.943 29.545 28.095 29.545H21.495C21.2961 29.5474 21.0988 29.51 20.9146 29.4349C20.7304 29.3599 20.5631 29.2487 20.4226 29.108C20.282 28.9673 20.1711 28.7998 20.0963 28.6155C20.0215 28.4313 19.9843 28.2339 19.987 28.035V14.348H28.095C28.943 14.348 29.603 15.008 29.603 15.858V28.035Z" fill="white"/>
</svg>
