<svg width="101" height="116" viewBox="0 0 101 116" fill="none" xmlns="http://www.w3.org/2000/svg">
<path d="M85.9325 36.4696H51.8283L85.9325 7.61223V36.4696Z" stroke="#1FB8CD"/>
<path d="M17.7603 36.4696V7.6708L49.1771 36.4696H17.7603Z" stroke="#1FB8CD"/>
<mask id="path-3-inside-1_2012_428" fill="white">
<path d="M50.4634 1V114.441Z"/>
</mask>
<path d="M49.4634 1V114.441H51.4634V1H49.4634Z" fill="#1FB8CD" mask="url(#path-3-inside-1_2012_428)"/>
<path d="M83.1656 107.792L50.9634 79.0786V38.1768L83.1656 70.3791V107.792Z" stroke="#1FB8CD"/>
<path d="M17.7603 107.771V70.3791L49.9625 38.1768V78.2299L17.7603 107.771Z" stroke="#1FB8CD"/>
<path d="M16.9069 69.8185L16.7605 69.9649V70.172V80.7394H3.92627V37.4697H49.2557L16.9069 69.8185Z" stroke="#1FB8CD"/>
<path d="M84.1656 70.172V69.9649L84.0191 69.8185L51.6705 37.4697H96.9999V80.7394H84.1656V70.172Z" stroke="#1FB8CD"/>
</svg>
