<svg width="148" height="178" viewBox="0 0 148 178" fill="none" xmlns="http://www.w3.org/2000/svg">
<g clip-path="url(#clip0_1992_3476)">
<g clip-path="url(#clip1_1992_3476)">
<path d="M138.462 23.7404C121.989 0.162583 89.4516 -6.82602 65.9276 8.16178L24.6217 34.4942C19.0386 38.0045 14.2496 42.6413 10.5609 48.108C6.87223 53.5748 4.36502 59.7512 3.19965 66.2423C1.22937 77.1745 2.96181 88.4516 8.12272 98.2882C4.58578 103.653 2.17332 109.679 1.03115 116.002C-0.145433 122.623 0.0118148 129.413 1.49368 135.972C2.97554 142.532 5.75218 148.729 9.66079 154.202C26.1344 177.783 58.6729 184.773 82.1937 169.78L123.509 143.448C129.091 139.937 133.878 135.3 137.565 129.833C141.252 124.367 143.758 118.19 144.922 111.7C146.895 100.769 145.167 89.4914 140.011 79.6525C143.546 74.2877 145.957 68.2624 147.098 61.9402C148.276 55.3192 148.12 48.5295 146.638 41.9698C145.157 35.41 142.38 29.2123 138.47 23.7404" fill="#FF3E00"/>
<path d="M61.8917 156.421C55.3899 158.111 48.5262 157.765 42.2272 155.43C35.9282 153.095 30.4975 148.884 26.6683 143.364C24.3181 140.074 22.6486 136.347 21.7575 132.403C20.8664 128.459 20.7718 124.377 21.4791 120.396C21.7185 119.089 22.0482 117.8 22.4659 116.539L23.2437 114.163L25.3615 115.717C30.248 119.31 35.7121 122.042 41.5183 123.795L43.0532 124.261L42.9122 125.794C42.7257 127.973 43.3166 130.148 44.5801 131.932C45.7331 133.596 47.3692 134.866 49.2673 135.57C51.1653 136.274 53.2338 136.378 55.1929 135.869C56.0893 135.63 56.9439 135.256 57.7273 134.76L99.0412 108.424C100.052 107.788 100.92 106.948 101.588 105.957C102.257 104.967 102.711 103.848 102.924 102.673C103.136 101.472 103.106 100.242 102.838 99.0534C102.569 97.8647 102.066 96.7413 101.359 95.749C100.205 94.0852 98.5694 92.8153 96.6716 92.1108C94.7737 91.4063 92.7053 91.3012 90.7458 91.8096C89.8495 92.0481 88.9949 92.422 88.2114 92.9184L72.4459 102.969C69.8513 104.617 67.0203 105.86 64.0507 106.653C57.5489 108.344 50.6851 107.998 44.3861 105.663C38.0871 103.328 32.6563 99.1161 28.8273 93.5963C26.4765 90.3064 24.8064 86.58 23.915 82.6359C23.0237 78.6919 22.929 74.6095 23.6365 70.6283C24.3386 66.7251 25.8476 63.0114 28.067 59.7247C30.2864 56.4381 33.1673 53.6508 36.5255 51.5411L77.8441 25.2103C80.438 23.5596 83.2692 22.3155 86.2393 21.5212C92.7411 19.8311 99.6049 20.1769 105.904 22.5119C112.203 24.8468 117.634 29.0585 121.463 34.5781C123.813 37.8683 125.483 41.5946 126.374 45.5386C127.266 49.4826 127.361 53.5649 126.654 57.5461C126.412 58.8527 126.082 60.1414 125.665 61.4031L124.887 63.7791L122.771 62.2284C117.885 58.6351 112.421 55.903 106.614 54.15L105.078 53.6843L105.22 52.151C105.406 49.971 104.816 47.7954 103.554 46.0082C102.401 44.3444 100.765 43.0748 98.8668 42.3708C96.9688 41.6669 94.9004 41.5626 92.9412 42.072C92.0449 42.3103 91.1902 42.6843 90.4068 43.1808L49.0819 69.518C48.071 70.1539 47.2038 70.9937 46.5359 71.9838C45.8679 72.9739 45.4138 74.0924 45.2027 75.2679C44.9897 76.4681 45.0182 77.6987 45.2863 78.8877C45.5545 80.0768 46.057 81.2005 46.7645 82.1931C47.9178 83.8568 49.5538 85.1265 51.4517 85.831C53.3495 86.5355 55.4177 86.6407 57.3773 86.1325C58.2734 85.8936 59.128 85.5197 59.9117 85.0237L75.6756 74.978C78.269 73.3267 81.1003 72.0831 84.0708 71.2905C90.5723 69.6003 97.4359 69.9461 103.735 72.281C110.033 74.616 115.464 78.8277 119.293 84.3474C121.643 87.6373 123.314 91.3637 124.205 95.3078C125.096 99.2518 125.191 103.334 124.483 107.315C123.783 111.219 122.275 114.933 120.058 118.22C117.841 121.508 114.962 124.297 111.606 126.409L70.2869 152.732C67.6931 154.383 64.862 155.627 61.8917 156.421Z" fill="white"/>
</g>
</g>
<defs>
<clipPath id="clip0_1992_3476">
<rect width="148" height="178" fill="white"/>
</clipPath>
<clipPath id="clip1_1992_3476">
<rect width="147.667" height="177.408" fill="white" transform="translate(0.228027 0.26709)"/>
</clipPath>
</defs>
</svg>
